<svg xmlns="http://www.w3.org/2000/svg" xmlns:xlink="http://www.w3.org/1999/xlink" xmlns:inkscape="http://www.inkscape.org/namespaces/inkscape" version="1.1" width="834.083" height="879.088" viewBox="0 0 834.083 879.088">
<defs>
<clipPath id="clip_1">
<path transform="matrix(1,0,0,-1,0,879.088)" d="M0 879.088H834.083V0H0Z"/>
</clipPath>
</defs>
<g inkscape:groupmode="layer" inkscape:label="Layer 1">
<path transform="matrix(1,0,0,-1,401.4131,286.92494)" d="M0 0 15.621 10.961 31.261 0 25.662 18.239 40.911 29.726 21.83 30.047 15.621 48.096 9.424 30.047-9.653 29.726 5.595 18.239Z" fill="#c7a12f"/>
<g clip-path="url(#clip_1)">
<path transform="matrix(1,0,0,-1,308.209,392.09483)" d="M0 0C-3.066 1.134-6.447-.116-7.609-3.257-8.771-6.395-7.018-9.542-3.949-10.676-.772-11.85 2.589-10.31 3.658-7.419 4.729-4.527 3.178-1.174 0 0" fill="#da2032"/>
<path transform="matrix(1,0,0,-1,322.0088,362.74623)" d="M0 0C-1.648 1.278-2.763 .42-3.783-.895L-4.085-1.284-.197-4.301 .081-3.941C1.112-2.611 1.678-1.304 0 0" fill="#da2032"/>
<path transform="matrix(1,0,0,-1,403.3887,322.87715)" d="M0 0-3.326 5.599-4.964-.699Z" fill="#da2032"/>
<path transform="matrix(1,0,0,-1,340.5645,340.8507)" d="M0 0-.376-.288 2.897-4.554 3.348-4.208C4.786-3.103 6.131-1.624 4.692 .252 3.277 2.095 1.394 1.071 0 0" fill="#da2032"/>
<path transform="matrix(1,0,0,-1,327.8652,365.7599)" d="M0 0C-1.647 1.278-3.243-.069-4.216-1.324L-4.889-2.19-.831-5.342 .004-4.265C1.012-2.965 1.663-1.293 0 0" fill="#da2032"/>
<path transform="matrix(1,0,0,-1,538.6221,437.76383)" d="M0 0-9.816-.57-9.954 1.785-.471 2.336C1.469 2.449 2.432 3.573 2.314 5.586L1.859 13.393 3.47 13.487 3.957 5.101C4.147 1.835 2.853 .167 0 0M-10.566 12.278-3.033 12.715-2.231 10.372-10.427 9.895ZM-13.273 26.82-11.642 27.144-10.579 21.779C-9.945 18.584-7.96 17.271-4.692 17.917L-4.075 18.039C-2.057 18.437-.679 19.183 .023 20.255 .581 21.14 .729 22.281 .458 23.65 .228 24.808-.178 25.688-.746 26.27-1.485 27.022-2.597 27.26-4.054 26.973-4.686 26.847-5.22 26.662-5.646 26.423L-6.957 28.316C-6.506 28.692-5.69 28.999-4.525 29.229-2.975 29.54-1.596 29.228-.418 28.303 .775 27.371 1.587 25.853 1.995 23.788 2.393 21.787 2.207 20.1 1.445 18.772 .558 17.237-1.103 16.221-3.492 15.75L-4.032 15.642C-6.141 15.225-7.937 15.537-9.381 16.578-10.823 17.607-11.773 19.24-12.206 21.432ZM-14.941 32.178-1.442 36.193-.771 33.933-14.268 29.918ZM-16.937 40.896C-17.79 41.717-18.684 42.68-19.593 43.757-20.452 44.774-21.354 45.933-22.279 47.2L-20.676 47.85C-20.393 47.477-20.041 47.034-19.628 46.532-19.192 46.002-18.676 45.38-18.079 44.664L-17.682 44.187-7.45 52.247-6.49 49.873-16.301 42.601-16.104 42.389C-15.313 41.535-14.558 40.92-13.87 40.566-13.004 40.074-12.194 39.824-11.418 39.824H-11.417C-10.614 39.833-9.535 40.115-8.118 40.688L-3.524 42.546-2.61 40.283-5.905 38.951C-8.38 37.951-10.54 37.664-12.321 38.096-13.854 38.469-15.407 39.41-16.937 40.896M-25.656 56.171-24.212 56.984C-22.917 55.686-21.512 54.797-20.031 54.341-18.65 53.927-17.207 54.132-15.755 54.948L-11.836 57.151-16.39 65.255-10.604 68.505-9.431 66.459-13.826 63.987-9.272 55.886-13.503 53.507C-15.606 52.325-17.622 51.959-19.509 52.425-21.769 52.975-23.836 54.234-25.656 56.171M-30.342 63.769-38.609 74.034-37.272 75.11-31.596 68.061-25.683 72.821C-24.88 73.469-24.424 74.166-24.328 74.895-24.231 75.628-24.498 76.392-25.121 77.163L-28.636 81.529-27.379 82.541-23.568 77.808C-23.018 77.127-22.613 76.472-22.365 75.861-22.126 75.273-22.03 74.701-22.08 74.162-22.129 73.63-22.324 73.103-22.658 72.596-23.003 72.075-23.499 71.553-24.133 71.042L-30.116 66.223-29.005 64.845ZM-38.814 82.104C-38.963 80.321-39.193 77.953-39.5 75.062L-41.418 76.887-40.33 87.817-40.536 87.878C-42.033 88.313-43.177 88.127-43.933 87.332L-47.954 83.101-49.646 84.707-46.329 88.194C-45.594 88.971-44.873 89.441-44.198 89.589-43.408 89.732-42.165 89.581-40.522 89.146L-40.207 89.063-40.027 94.992-38.024 93.088C-38.104 90.996-38.289 87.886-38.577 83.841L-38.592 83.634-38.395 83.574C-37.516 83.31-36.813 83.226-36.301 83.325-35.764 83.427-35.222 83.763-34.688 84.322L-31.896 87.263-30.165 85.618-32.633 83.022C-33.273 82.35-34.038 81.946-34.904 81.826-35.792 81.702-36.998 81.872-38.479 82.329L-38.788 82.425ZM-53.588 87.629-48.329 94.806C-46.948 96.689-47.157 98.374-48.933 99.676L-53.051 102.692-52.097 103.993-47.752 100.81C-46.29 99.739-45.415 98.651-45.15 97.58-44.861 96.363-45.26 95.003-46.335 93.536L-51.685 86.233ZM-57.365 98.735-61.839 101.476-60.98 102.872-56.509 100.133ZM-66.453 101.798C-67.737 100.947-69.405 100.516-71.41 100.516L-71.709 100.519C-74.085 100.563-77.267 101.399-81.169 103.003L-76.36 116.637-74.15 115.615-78.533 103.682-78.287 103.594C-75.697 102.672-73.526 102.181-71.835 102.134-70.171 102.096-68.853 102.438-67.901 103.168-67.003 103.821-66.139 105.035-65.334 106.775L-63.521 110.701-61.379 109.71-63.005 106.192C-63.938 104.174-65.098 102.695-66.453 101.798M-82.23 113.587-84.408 106.222-82.712 105.719-83.2 104.074-95.839 107.813-95.352 109.457-86.672 106.891-84.519 114.171C-83.933 116.152-84.627 117.497-86.526 118.06L-91.898 119.649-91.442 121.197-85.614 119.474C-84.769 119.222-84.063 118.914-83.519 118.557-82.987 118.208-82.583 117.792-82.317 117.323-82.055 116.853-81.915 116.308-81.901 115.703-81.889 115.079-81.999 114.367-82.23 113.587M-103.018 110.096C-104.156 109.788-105.442 109.519-106.843 109.295-108.149 109.086-109.605 108.909-111.177 108.77L-110.906 110.479C-110.471 110.524-109.922 110.596-109.235 110.697-108.469 110.811-107.548 110.949-106.472 111.117L-106.223 111.156-107.852 124.078-105.321 123.676-104.151 111.52-103.869 111.578C-102.733 111.813-101.817 112.144-101.153 112.553-100.266 113.054-99.627 113.633-99.255 114.271-98.849 114.961-98.534 116.03-98.293 117.542L-97.516 122.436-95.104 122.054-95.663 118.543C-96.082 115.903-96.949 113.905-98.239 112.604-99.354 111.481-100.96 110.638-103.018 110.096M-69.884 113.644-67.89 112.721-71.264 105.426-73.614 105.574ZM-132.156 109.851-134.272 113.312-140.683 112.409-141.752 108.499-143.624 108.236-139.129 124.502-130.285 110.113ZM-146.847 106.506-156.438 120.3-154.562 120.745-147.923 111.027-146.388 122.687-144.513 123.129ZM-160.371 103.26-165.161 117.307-157.988 119.75-157.441 118.147-162.949 116.271-161.608 112.34-156.261 114.162-155.715 112.561-161.062 110.737-159.253 105.428-153.746 107.306-153.2 105.703ZM-163.893 101.853-166.83 108.35-172.95 105.587-170.013 99.091-171.614 98.367-177.735 111.897-176.133 112.621-173.666 107.165-167.544 109.928-170.011 115.384-168.409 116.106-162.288 102.576ZM-176.534 95.208C-178.511 94.066-180.935 94.713-182.383 96.627L-181.041 97.855C-180.241 96.432-178.582 96.027-177.27 96.784-175.956 97.541-175.685 99.244-176.462 100.59-177.258 101.971-178.654 101.959-179.973 101.813L-181.032 101.701C-182.789 101.527-184.535 101.634-185.567 103.423-186.767 105.502-185.734 107.758-183.886 108.825-182.524 109.61-181.003 109.557-179.622 108.694L-180.395 107.227C-181.311 107.766-182.13 107.839-183.055 107.306-184.025 106.744-184.693 105.428-184.044 104.302-183.464 103.297-182.22 103.311-181.28 103.443L-180.199 103.59C-178.052 103.875-176.177 103.617-174.937 101.47-173.591 99.135-174.345 96.472-176.534 95.208M-187.231 94.932-188.09 96.223-184.772 98.431-183.913 97.141ZM-186.486 89.162-193.641 91.589-194.224 91.141-190.398 86.156-191.809 85.074-200.85 96.855-199.14 98.168C-198.135 98.94-197.044 99.753-195.736 99.913-194.349 100.061-192.957 99.365-192.094 98.24-190.799 96.553-190.801 94.318-192.277 92.859L-184.776 90.475ZM-198.816 78.782-208.829 89.73-203.185 94.896-202.043 93.646-206.377 89.68-203.575 86.617-199.364 90.469-198.223 89.22-202.433 85.367-198.647 81.23-194.312 85.197-193.17 83.947ZM-205.296 71.904-216.204 81.979-211.017 87.602-209.773 86.453-213.755 82.135-210.703 79.315-206.835 83.51-205.591 82.361-209.46 78.166-205.336 74.357-201.353 78.677-200.11 77.528ZM-209.332 66.873-211.372 64.244-223.095 73.344-222.027 74.719C-220.382 76.842-218.253 78.396-215.608 76.345-214.754 75.68-214.107 74.459-214.325 73.408L-214.295 73.383C-213.013 74.52-210.942 74.397-209.574 73.334-207.227 71.513-207.788 68.862-209.332 66.873M-217.809 54.158-230.544 61.768-229.634 63.294-218.35 56.553-216.128 60.271-214.677 59.402ZM-222.171 45.759-235.442 52.415-232.017 59.256-230.504 58.496-233.133 53.243-229.419 51.381-226.864 56.481-225.352 55.723-227.905 50.622-222.889 48.105-220.259 53.359-218.744 52.599ZM-225.129 37.649C-226.56 33.783-230.843 31.798-234.979 33.326-238.97 34.801-241.064 39.182-239.647 43.015-238.231 46.846-233.786 48.811-229.797 47.337-225.658 45.807-223.699 41.516-225.129 37.649M-229.771 23.088-244.177 26.683-243.681 28.664C-242.618 32.92-240.76 33.858-238.122 33.199-235.084 32.442-234.474 29.932-235.13 27.309L-235.378 26.318-229.34 24.811ZM-230.362 20.517-234.279 19.451-235.237 12.979-231.796 10.826-232.074 8.936-246.386 17.93-230.082 22.407ZM-232.096 6.642-239.221 6.89-239.457 .107-232.332-.142-232.395-1.917-247.235-1.4-247.175 .375-241.189 .168-240.953 6.951-246.937 7.158-246.876 8.934-232.033 8.418ZM-121.582 133.437C-195.346 133.437-255.146 73.642-255.146-.127-255.146-3.401-254.983-6.64-254.754-9.859H-250.88-227.5-224.419C-224.704-6.744-224.867-3.596-224.867-.411-224.867 56.633-178.627 102.872-121.582 102.872-64.541 102.872-18.292 56.633-18.292-.411-18.292-3.596-18.456-6.744-18.741-9.859H-15.659 7.719 11.595C11.827-6.64 11.983-3.401 11.983-.127 11.983 73.642-47.816 133.437-121.582 133.437" fill="#da2032"/>
<path transform="matrix(1,0,0,-1,300.0586,406.16813)" d="M0 0C-2.255 .562-3.035-1.426-3.463-3.131L-3.577-3.59 1.582-4.876 1.719-4.326C2.158-2.565 2.292-.572 0 0" fill="#da2032"/>
<path transform="matrix(1,0,0,-1,301.8174,423.80873)" d="M0 0 .742 5.014-5.568 3.382Z" fill="#da2032"/>
<path transform="matrix(1,0,0,-1,361.0215,492.8497)" d="M0 0C4.878-8.074 12.071-17.345 15.023-21.065 20.501-21.362 36.432-22.172 46.945-22.172 56.818-22.172 69.643-20.327 73.633-19.712 75.457-15.631 80.258-5.12 85.061 3.574 89.152 10.963 94.272 18.593 96.478 21.804 94.434 25.137 89.605 33.007 85.675 39.458H-4.368C-7.961 32.24-10.948 25.75-11.994 23.443-10.068 19.161-5.111 8.467 0 0" fill="#da2032"/>
<path transform="matrix(1,0,0,-1,311.8232,465.7755)" d="M0 0C2.915-.398 9.711-1.248 17.415-1.737 24.539-2.183 31.794-1.954 34.852-1.816 36.011 .725 38.55 6.197 41.6 12.384H-5.9C-3.676 7.135-1.397 2.627 0 0" fill="#da2032"/>
<path transform="matrix(1,0,0,-1,459.8525,469.33213)" d="M0 0C3.351 .351 13.045 1.297 23.151 1.819 29.178 2.131 39.104 1.954 43.007 1.863 44.494 4.712 47.338 10.212 50.141 15.94H-9.767C-6.101 9.941-1.938 3.158 0 0" fill="#da2032"/>
<path transform="matrix(1,0,0,-1,454.2344,551.6759)" d="M0 0C4.813 6.558 6.688 11.151 7.262 12.757 4.828 14.146-.694 17.494-6.227 22.115-11.968 26.923-17.344 33.521-19.425 36.183-23.779 35.521-36.429 33.73-46.268 33.73-56.526 33.73-71.861 34.489-77.812 34.811-79.781 32.224-84.389 26.254-87.759 22.439-91.452 18.264-94.703 15.128-96.424 13.532-93.833 10.613-87.815 3.886-83.813 .211L-82.754-.77C-77.697-5.421-69.733-11.519-61.627-17.459-53.694-18.95-45.52-19.733-37.167-19.733-30.391-19.733-23.732-19.212-17.225-18.222-13.09-14.41-4.747-6.464 0 0" fill="#da2032"/>
<path transform="matrix(1,0,0,-1,313.7598,507.4161)" d="M0 0C-1.046 3.266-3.431 11.466-4.419 20.734-5.305 28.968-4.537 35.754-3.96 39.266-5.366 41.859-8.261 47.42-10.982 54.024H-29.271C-26.811 34.567-20.246 16.392-10.494 .41-7.99 .223-4.025-.057-2.573-.057-1.687-.057-.726-.028 0 0" fill="#da2032"/>
<path transform="matrix(1,0,0,-1,513.2139,453.39173)" d="M0 0C-3.45-7.116-7.106-14.126-8.395-16.57-7.852-20.943-6.772-30.263-6.459-37.19-6.132-44.556-7.088-53.81-7.531-57.569-5.599-58.591-1.803-60.574 .607-61.79 3.757-63.38 8.612-64.795 9.79-65.127 23.887-46.604 33.361-24.302 36.436 0Z" fill="#da2032"/>
<path transform="matrix(1,0,0,-1,504.4883,513.631)" d="M0 0C-2.594-2.504-10.068-9.465-18.595-14.948-26.547-20.078-36.242-23.956-40.054-25.397L-40-25.413C-40.054-25.639-41.592-31.139-47.934-39.794-52.34-45.792-58.596-51.976-62.2-55.358-30.554-49.218-2.842-31.741 16.648-7.284 14.68-6.74 10.864-5.593 8.041-4.166 5.674-2.969 1.983-1.042 0 0" fill="#da2032"/>
<path transform="matrix(1,0,0,-1,368.4727,553.629)" d="M0 0C-5.292 4.871-13.718 14.566-14.078 14.983L-13.762 15.267C-17.789 17.396-27.8 22.867-35.696 28.615-44.037 34.684-50.697 40.938-53.038 43.289L-53.346 43.354C-53.428 43.354-55.457 43.229-57.286 43.229-58.688 43.229-61.36 43.427-63.305 43.588-44.797 14.982-15.88-6.13 17.957-14.192 10.649-8.896 6.062-5.58 1.061-.977Z" fill="#da2032"/>
<path transform="matrix(1,0,0,-1,362.8008,416.923)" d="M0 0V-2.785H4.157L6.375 7.142H.832V10.853H-1.848V4.448H2.404L1.663 0Z" fill="#da2032"/>
<path transform="matrix(1,0,0,-1,379.0635,409.7814)" d="M0 0H-3.973V-2.693H-3.232V-5.568L-5.821 0H-9.332V-2.693H-7.944L-6.098-7.142H-9.332V-9.927H0Z" fill="#da2032"/>
<path transform="matrix(1,0,0,-1,403.8301,409.7814)" d="M0 0H-7.855V-4.733H-4.712V-2.689H-3.142V-7.142H-7.855V-9.927H0Z" fill="#da2032"/>
<path transform="matrix(1,0,0,-1,0,879.088)" d="M408.542 464.574H405.31V459.38H408.542Z" fill="#da2032"/>
<path transform="matrix(1,0,0,-1,412.5156,419.7081)" d="M0 0V9.927H-7.206V7.233H-2.956V0Z" fill="#da2032"/>
<path transform="matrix(1,0,0,-1,397.917,404.4435)" d="M0 0-4.779 23.031-7.646 23.416-5.353 25.908-2.676 32.05 10.514 33.2 0 42.221C.262 44.887-2.52 45.427-3.703 44.227-5.098 43.08-4.041 39.988-1.722 40.88L2.544 35.898-6.51 37.291-7.899 39.582C-7.222 40.591-7.588 45.168-8.222 45.099-9.816 45.987-11.66 46.131-13.573 46.062-14.215 45.556-14.537 44.898-14.542 44.08L-13.573 43.95-13.191 40.085C-12.552 39.661-11.916 39.479-11.28 39.535L-10.67 37.761-26.394 40.584C-13.697 52.215 8.013 48.892 12.808 29.555 16.281 13.56 8.952 3.134 0 0M-3.61-1.811-9.284-8.628-18.508 .526-8.777 16.501-1.683-.895ZM18.992 29.524C15.749 51.433-12.596 58.117-28.742 41.022L-33.608 41.735C-41.04 44.82-39.148 34.884-33.103 39.7L-15.365 34.513-12.324 22.709-19.725 1.75-31.886 13.856C-34.256 16.471-39.057 12.435-35.868 9.585L-10.665-10.176-14.998-15.268-10.095-19.728-2.87-11.67-2.9-3.643C11.798 1.697 21.055 11.397 18.992 29.524" fill="#da2032"/>
<path transform="matrix(1,0,0,-1,385.2568,403.8439)" d="M0 0H1.108V-5.937H4.252V2.781H0Z" fill="#da2032"/>
<path transform="matrix(1,0,0,-1,462.1816,369.5216)" d="M0 0-4.648-4.648V-78.189H-2.426V-4.648L2.226 0V11.651L0 13.004Z" fill="#da2032"/>
<path transform="matrix(1,0,0,-1,432.8682,356.8048)" d="M0 0V-12.951L4.649-17.365V-90.906H6.872V-16.096L2.225-11.857V-.875Z" fill="#da2032"/>
<path transform="matrix(1,0,0,-1,436.2197,366.87513)" d="M0 0H-.007L6.401-5.704 12.803 0H12.834V13.768C8.679 15.283 4.408 16.55 .021 17.521Z" fill="#da2032"/>
<path transform="matrix(1,0,0,-1,458.6562,350.48554)" d="M0 0C-1.077 .495-2.165 .981-3.262 1.438-3.867 1.694-4.476 1.943-5.09 2.184-5.468 2.334-5.832 2.498-6.213 2.645V2.605C-11.435 4.606-16.834 6.243-22.416 7.41V3.261C-16.824 2.021-11.414 .315-6.213-1.802V-17.318L-13.419-23.655V-97.171H-2.942L-2.979-23.655 1.605-19.073V-.729C1.582-.717 1.559-.708 1.531-.696V-.675C1.029-.437 .511-.229 0 0" fill="#da2032"/>
<path transform="matrix(1,0,0,-1,0,879.088)" d="M419.609 431.377H424.657V447.975H419.609Z" fill="#da2032"/>
<path transform="matrix(1,0,0,-1,0,879.088)" d="M472.271 431.377H477.315V447.975H472.271Z" fill="#da2032"/>
<path transform="matrix(1,0,0,-1,0,879.088)" d="M463.254 431.377H468.3V447.975H463.254Z" fill="#da2032"/>
<path transform="matrix(1,0,0,-1,0,879.088)" d="M481.282 431.377H486.332V447.975H481.282Z" fill="#da2032"/>
<path transform="matrix(1,0,0,-1,0,879.088)" d="M428.623 431.377H433.67298V447.975H428.623Z" fill="#da2032"/>
<path transform="matrix(1,0,0,-1,0,879.088)" d="M499.312 431.377H504.36103V447.975H499.312Z" fill="#da2032"/>
<path transform="matrix(1,0,0,-1,0,879.088)" d="M415.643 447.975H410.595V431.377H415.643Z" fill="#da2032"/>
<path transform="matrix(1,0,0,-1,0,879.088)" d="M513.377 447.975H508.32704V431.377H513.377Z" fill="#da2032"/>
<path transform="matrix(1,0,0,-1,0,879.088)" d="M490.299 431.377H495.345V447.975H490.299Z" fill="#da2032"/>
<path transform="matrix(1,0,0,-1,0,879.088)" d="M347.493 431.377H352.54203V447.975H347.493Z" fill="#da2032"/>
<path transform="matrix(1,0,0,-1,0,879.088)" d="M329.461 431.377H334.51V447.975H329.461Z" fill="#da2032"/>
<path transform="matrix(1,0,0,-1,0,879.088)" d="M338.48 431.377H343.526V447.975H338.48Z" fill="#da2032"/>
<path transform="matrix(1,0,0,-1,0,879.088)" d="M356.509 431.377H361.555V447.975H356.509Z" fill="#da2032"/>
<path transform="matrix(1,0,0,-1,0,879.088)" d="M320.448 431.377H325.494V447.975H320.448Z" fill="#da2032"/>
<path transform="matrix(1,0,0,-1,0,879.088)" d="M383.554 431.377H388.598V447.975H383.554Z" fill="#da2032"/>
<path transform="matrix(1,0,0,-1,0,879.088)" d="M370.567 447.975H365.521V431.377H370.567Z" fill="#da2032"/>
<path transform="matrix(1,0,0,-1,0,879.088)" d="M392.562 431.377H397.614V447.975H392.562Z" fill="#da2032"/>
<path transform="matrix(1,0,0,-1,0,879.088)" d="M406.632 447.975H401.57899V431.377H406.632Z" fill="#da2032"/>
<path transform="matrix(1,0,0,-1,0,879.088)" d="M379.58 447.975H374.534V431.377H379.58Z" fill="#da2032"/>
</g>
</g>
</svg>
